<svg
  id="visual"
  viewBox="0 0 900 600"
  width="900"
  height="600"
  xmlns="http://www.w3.org/2000/svg"
  xmlns:xlink="http://www.w3.org/1999/xlink"
  version="1.1"
><rect x="0" y="0" width="900" height="600" fill="#001220" /><defs
  ><linearGradient id="grad1_0" x1="33.3%" y1="100%" x2="100%" y2="0%"><stop
        offset="20%"
        stop-color="#001220"
        stop-opacity="1"
      /><stop
        offset="80%"
        stop-color="#001220"
        stop-opacity="1"
      /></linearGradient></defs><defs><linearGradient
      id="grad2_0"
      x1="0%"
      y1="100%"
      x2="66.7%"
      y2="0%"
    ><stop offset="20%" stop-color="#001220" stop-opacity="1" /><stop
        offset="80%"
        stop-color="#001220"
        stop-opacity="1"
      /></linearGradient></defs><g transform="translate(900, 600)"><path
      d="M-486.7 0C-479 -62.6 -471.3 -125.2 -449.7 -186.3C-428.1 -247.4 -392.5 -307 -342.9 -342.9C-293.4 -378.9 -229.8 -391.1 -170.3 -411.1C-110.8 -431.1 -55.4 -458.9 0 -486.7L0 0Z"
      fill="#FBAE3C"
    /></g><g transform="translate(0, 0)"><path
      d="M486.7 0C438.1 44 389.5 88 375.1 155.4C360.7 222.7 380.5 313.5 344.2 344.2C307.9 374.9 215.6 345.6 148.9 359.4C82.2 373.1 41.1 429.9 0 486.7L0 0Z"
      fill="#FBAE3C"
    /></g></svg>
