<svg id="visual" viewBox="0 0 900 600" width="900" height="600" xmlns="http://www.w3.org/2000/svg" xmlns:xlink="http://www.w3.org/1999/xlink" version="1.1"><g stroke-width="1" stroke-linejoin="bevel"><path d="M409.1 315L413.1 369L478.9 371Z" fill="#fbfbfb" stroke="#fbfbfb"></path><path d="M478.9 371L497.9 294L409.1 315Z" fill="#efefef" stroke="#efefef"></path><path d="M316.3 380L403.1 441L413.1 369Z" fill="#ededed" stroke="#ededed"></path><path d="M413.1 369L403.1 441L478.9 371Z" fill="#f7f7f7" stroke="#f7f7f7"></path><path d="M497.9 294L498.9 235L409.1 315Z" fill="#f1f1f1" stroke="#f1f1f1"></path><path d="M403.1 441L500.9 446L478.9 371Z" fill="#f5f5f5" stroke="#f5f5f5"></path><path d="M478.9 371L565.7 370L497.9 294Z" fill="#f3f3f3" stroke="#f3f3f3"></path><path d="M497.9 294L564.7 240L498.9 235Z" fill="#ebebeb" stroke="#ebebeb"></path><path d="M500.9 446L565.7 370L478.9 371Z" fill="#fbfbfb" stroke="#fbfbfb"></path><path d="M498.9 235L394.1 224L409.1 315Z" fill="#fbfbfb" stroke="#fbfbfb"></path><path d="M409.1 315L316.3 380L413.1 369Z" fill="#f1f1f1" stroke="#f1f1f1"></path><path d="M565.7 370L569.7 305L497.9 294Z" fill="#f7f7f7" stroke="#f7f7f7"></path><path d="M318.3 284L316.3 380L409.1 315Z" fill="#ededed" stroke="#ededed"></path><path d="M394.1 224L318.3 284L409.1 315Z" fill="#fdfdfd" stroke="#fdfdfd"></path><path d="M500.9 446L558.7 445L565.7 370Z" fill="#ededed" stroke="#ededed"></path><path d="M569.7 305L564.7 240L497.9 294Z" fill="#ffffff" stroke="#ffffff"></path><path d="M498.9 235L482.9 163L394.1 224Z" fill="#f5f5f5" stroke="#f5f5f5"></path><path d="M316.3 380L321.3 456L403.1 441Z" fill="#efefef" stroke="#efefef"></path><path d="M411.1 533L500.9 522L500.9 446Z" fill="#f7f7f7" stroke="#f7f7f7"></path><path d="M500.9 446L500.9 522L558.7 445Z" fill="#f7f7f7" stroke="#f7f7f7"></path><path d="M394.1 224L313.3 225L318.3 284Z" fill="#f9f9f9" stroke="#f9f9f9"></path><path d="M318.3 284L257.5 293L316.3 380Z" fill="#ffffff" stroke="#ffffff"></path><path d="M563.7 141L482.9 163L498.9 235Z" fill="#f1f1f1" stroke="#f1f1f1"></path><path d="M394.1 224L320.3 147L313.3 225Z" fill="#f5f5f5" stroke="#f5f5f5"></path><path d="M482.9 163L417.1 154L394.1 224Z" fill="#ededed" stroke="#ededed"></path><path d="M411.1 533L500.9 446L403.1 441Z" fill="#ffffff" stroke="#ffffff"></path><path d="M313.3 225L257.5 293L318.3 284Z" fill="#fdfdfd" stroke="#fdfdfd"></path><path d="M316.3 380L249.5 380L321.3 456Z" fill="#efefef" stroke="#efefef"></path><path d="M335.3 520L411.1 533L403.1 441Z" fill="#ffffff" stroke="#ffffff"></path><path d="M257.5 293L249.5 380L316.3 380Z" fill="#f3f3f3" stroke="#f3f3f3"></path><path d="M653.5 453L647.5 367L558.7 445Z" fill="#f7f7f7" stroke="#f7f7f7"></path><path d="M558.7 445L647.5 367L565.7 370Z" fill="#f9f9f9" stroke="#f9f9f9"></path><path d="M565.7 370L647.5 367L569.7 305Z" fill="#ededed" stroke="#ededed"></path><path d="M569.7 305L659.5 314L564.7 240Z" fill="#f9f9f9" stroke="#f9f9f9"></path><path d="M255.5 534L335.3 520L321.3 456Z" fill="#f9f9f9" stroke="#f9f9f9"></path><path d="M321.3 456L335.3 520L403.1 441Z" fill="#ebebeb" stroke="#ebebeb"></path><path d="M647.5 367L659.5 314L569.7 305Z" fill="#f1f1f1" stroke="#f1f1f1"></path><path d="M564.7 240L563.7 141L498.9 235Z" fill="#f9f9f9" stroke="#f9f9f9"></path><path d="M500.9 522L587.7 511L558.7 445Z" fill="#ffffff" stroke="#ffffff"></path><path d="M650.5 211L563.7 141L564.7 240Z" fill="#efefef" stroke="#efefef"></path><path d="M482.9 163L485.9 64L417.1 154Z" fill="#f5f5f5" stroke="#f5f5f5"></path><path d="M417.1 154L320.3 147L394.1 224Z" fill="#f1f1f1" stroke="#f1f1f1"></path><path d="M313.3 225L250.5 215L257.5 293Z" fill="#fbfbfb" stroke="#fbfbfb"></path><path d="M394.1 61L320.3 147L417.1 154Z" fill="#efefef" stroke="#efefef"></path><path d="M320.3 147L250.5 215L313.3 225Z" fill="#ebebeb" stroke="#ebebeb"></path><path d="M257.5 293L174.6 304L249.5 380Z" fill="#f9f9f9" stroke="#f9f9f9"></path><path d="M587.7 511L653.5 453L558.7 445Z" fill="#fdfdfd" stroke="#fdfdfd"></path><path d="M737.4 385L724.4 301L659.5 314Z" fill="#f3f3f3" stroke="#f3f3f3"></path><path d="M249.5 380L242.5 463L321.3 456Z" fill="#fbfbfb" stroke="#fbfbfb"></path><path d="M172.6 459L242.5 463L249.5 380Z" fill="#ededed" stroke="#ededed"></path><path d="M659.5 314L650.5 211L564.7 240Z" fill="#ededed" stroke="#ededed"></path><path d="M335.3 520L415.1 600L411.1 533Z" fill="#f9f9f9" stroke="#f9f9f9"></path><path d="M411.1 533L494.9 600L500.9 522Z" fill="#f7f7f7" stroke="#f7f7f7"></path><path d="M500.9 522L561.7 600L587.7 511Z" fill="#ebebeb" stroke="#ebebeb"></path><path d="M316.3 600L415.1 600L335.3 520Z" fill="#f1f1f1" stroke="#f1f1f1"></path><path d="M415.1 600L494.9 600L411.1 533Z" fill="#f5f5f5" stroke="#f5f5f5"></path><path d="M587.7 511L640.5 526L653.5 453Z" fill="#f1f1f1" stroke="#f1f1f1"></path><path d="M638.5 600L640.5 526L587.7 511Z" fill="#ffffff" stroke="#ffffff"></path><path d="M242.5 463L255.5 534L321.3 456Z" fill="#f7f7f7" stroke="#f7f7f7"></path><path d="M250.5 215L174.6 304L257.5 293Z" fill="#fbfbfb" stroke="#fbfbfb"></path><path d="M242.5 463L148.6 512L255.5 534Z" fill="#f1f1f1" stroke="#f1f1f1"></path><path d="M577.7 80L485.9 64L563.7 141Z" fill="#efefef" stroke="#efefef"></path><path d="M563.7 141L485.9 64L482.9 163Z" fill="#f9f9f9" stroke="#f9f9f9"></path><path d="M737.4 385L659.5 314L647.5 367Z" fill="#fdfdfd" stroke="#fdfdfd"></path><path d="M659.5 314L726.4 226L650.5 211Z" fill="#fbfbfb" stroke="#fbfbfb"></path><path d="M737.4 385L647.5 367L653.5 453Z" fill="#ebebeb" stroke="#ebebeb"></path><path d="M726.4 226L666.5 164L650.5 211Z" fill="#f7f7f7" stroke="#f7f7f7"></path><path d="M650.5 211L666.5 164L563.7 141Z" fill="#f1f1f1" stroke="#f1f1f1"></path><path d="M485.9 64L394.1 61L417.1 154Z" fill="#ededed" stroke="#ededed"></path><path d="M320.3 147L240.5 143L250.5 215Z" fill="#f7f7f7" stroke="#f7f7f7"></path><path d="M494.9 600L561.7 600L500.9 522Z" fill="#fbfbfb" stroke="#fbfbfb"></path><path d="M233.5 87L240.5 143L320.3 147Z" fill="#f9f9f9" stroke="#f9f9f9"></path><path d="M250.5 215L157.6 213L174.6 304Z" fill="#f5f5f5" stroke="#f5f5f5"></path><path d="M645.5 66L577.7 80L563.7 141Z" fill="#ededed" stroke="#ededed"></path><path d="M255.5 534L316.3 600L335.3 520Z" fill="#f1f1f1" stroke="#f1f1f1"></path><path d="M747.4 459L737.4 385L653.5 453Z" fill="#f9f9f9" stroke="#f9f9f9"></path><path d="M174.6 304L153.6 388L249.5 380Z" fill="#f5f5f5" stroke="#f5f5f5"></path><path d="M394.1 61L319.3 70L320.3 147Z" fill="#f3f3f3" stroke="#f3f3f3"></path><path d="M153.6 388L172.6 459L249.5 380Z" fill="#f9f9f9" stroke="#f9f9f9"></path><path d="M255.5 534L229.5 600L316.3 600Z" fill="#f5f5f5" stroke="#f5f5f5"></path><path d="M724.4 301L726.4 226L659.5 314Z" fill="#fbfbfb" stroke="#fbfbfb"></path><path d="M831.2 229L726.4 226L724.4 301Z" fill="#ededed" stroke="#ededed"></path><path d="M165.6 148L157.6 213L250.5 215Z" fill="#f5f5f5" stroke="#f5f5f5"></path><path d="M174.6 304L93.8 371L153.6 388Z" fill="#f9f9f9" stroke="#f9f9f9"></path><path d="M165.6 148L250.5 215L240.5 143Z" fill="#ebebeb" stroke="#ebebeb"></path><path d="M750.4 521L653.5 453L640.5 526Z" fill="#ebebeb" stroke="#ebebeb"></path><path d="M750.4 521L747.4 459L653.5 453Z" fill="#f1f1f1" stroke="#f1f1f1"></path><path d="M807.2 145L739.4 146L726.4 226Z" fill="#ffffff" stroke="#ffffff"></path><path d="M561.7 600L638.5 600L587.7 511Z" fill="#f3f3f3" stroke="#f3f3f3"></path><path d="M319.3 70L233.5 87L320.3 147Z" fill="#f5f5f5" stroke="#f5f5f5"></path><path d="M666.5 164L645.5 66L563.7 141Z" fill="#efefef" stroke="#efefef"></path><path d="M500.9 0L409.1 0L485.9 64Z" fill="#f9f9f9" stroke="#f9f9f9"></path><path d="M485.9 64L409.1 0L394.1 61Z" fill="#f1f1f1" stroke="#f1f1f1"></path><path d="M745.4 89L645.5 66L666.5 164Z" fill="#ebebeb" stroke="#ebebeb"></path><path d="M148.6 512L229.5 600L255.5 534Z" fill="#ffffff" stroke="#ffffff"></path><path d="M233.5 87L165.6 148L240.5 143Z" fill="#fbfbfb" stroke="#fbfbfb"></path><path d="M500.9 0L485.9 64L570.7 0Z" fill="#f9f9f9" stroke="#f9f9f9"></path><path d="M394.1 61L319.3 0L319.3 70Z" fill="#f9f9f9" stroke="#f9f9f9"></path><path d="M319.3 70L254.5 0L233.5 87Z" fill="#ededed" stroke="#ededed"></path><path d="M570.7 0L485.9 64L577.7 80Z" fill="#efefef" stroke="#efefef"></path><path d="M172.6 459L148.6 512L242.5 463Z" fill="#f7f7f7" stroke="#f7f7f7"></path><path d="M92.8 445L148.6 512L172.6 459Z" fill="#ebebeb" stroke="#ebebeb"></path><path d="M92.8 445L172.6 459L153.6 388Z" fill="#f3f3f3" stroke="#f3f3f3"></path><path d="M828.2 362L724.4 301L737.4 385Z" fill="#fbfbfb" stroke="#fbfbfb"></path><path d="M726.4 226L739.4 146L666.5 164Z" fill="#ffffff" stroke="#ffffff"></path><path d="M723.4 600L750.4 521L640.5 526Z" fill="#f7f7f7" stroke="#f7f7f7"></path><path d="M828.2 454L828.2 362L737.4 385Z" fill="#ffffff" stroke="#ffffff"></path><path d="M86.8 306L174.6 304L157.6 213Z" fill="#fbfbfb" stroke="#fbfbfb"></path><path d="M86.8 306L93.8 371L174.6 304Z" fill="#ffffff" stroke="#ffffff"></path><path d="M667.5 0L570.7 0L645.5 66Z" fill="#ededed" stroke="#ededed"></path><path d="M645.5 66L570.7 0L577.7 80Z" fill="#efefef" stroke="#efefef"></path><path d="M84.8 209L86.8 306L157.6 213Z" fill="#ffffff" stroke="#ffffff"></path><path d="M233.5 87L168.6 74L165.6 148Z" fill="#efefef" stroke="#efefef"></path><path d="M409.1 0L319.3 0L394.1 61Z" fill="#efefef" stroke="#efefef"></path><path d="M0 387L92.8 445L93.8 371Z" fill="#ebebeb" stroke="#ebebeb"></path><path d="M93.8 371L92.8 445L153.6 388Z" fill="#f9f9f9" stroke="#f9f9f9"></path><path d="M638.5 600L723.4 600L640.5 526Z" fill="#f3f3f3" stroke="#f3f3f3"></path><path d="M828.2 454L747.4 459L750.4 521Z" fill="#f1f1f1" stroke="#f1f1f1"></path><path d="M828.2 454L737.4 385L747.4 459Z" fill="#efefef" stroke="#efefef"></path><path d="M168.6 0L168.6 74L233.5 87Z" fill="#fdfdfd" stroke="#fdfdfd"></path><path d="M165.6 148L84.8 209L157.6 213Z" fill="#f7f7f7" stroke="#f7f7f7"></path><path d="M70.8 151L84.8 209L165.6 148Z" fill="#efefef" stroke="#efefef"></path><path d="M828.2 362L832.2 306L724.4 301Z" fill="#fdfdfd" stroke="#fdfdfd"></path><path d="M807.2 145L745.4 89L739.4 146Z" fill="#f3f3f3" stroke="#f3f3f3"></path><path d="M739.4 146L745.4 89L666.5 164Z" fill="#ffffff" stroke="#ffffff"></path><path d="M319.3 0L254.5 0L319.3 70Z" fill="#ffffff" stroke="#ffffff"></path><path d="M81.8 538L155.6 600L148.6 512Z" fill="#f9f9f9" stroke="#f9f9f9"></path><path d="M148.6 512L155.6 600L229.5 600Z" fill="#ffffff" stroke="#ffffff"></path><path d="M813.2 537L828.2 454L750.4 521Z" fill="#fdfdfd" stroke="#fdfdfd"></path><path d="M828.2 362L900 369L832.2 306Z" fill="#f5f5f5" stroke="#f5f5f5"></path><path d="M832.2 306L831.2 229L724.4 301Z" fill="#f1f1f1" stroke="#f1f1f1"></path><path d="M745.4 89L667.5 0L645.5 66Z" fill="#ededed" stroke="#ededed"></path><path d="M831.2 229L807.2 145L726.4 226Z" fill="#f9f9f9" stroke="#f9f9f9"></path><path d="M745.4 89L744.4 0L667.5 0Z" fill="#fbfbfb" stroke="#fbfbfb"></path><path d="M0 463L81.8 538L92.8 445Z" fill="#ffffff" stroke="#ffffff"></path><path d="M92.8 445L81.8 538L148.6 512Z" fill="#f5f5f5" stroke="#f5f5f5"></path><path d="M0 387L93.8 371L86.8 306Z" fill="#f1f1f1" stroke="#f1f1f1"></path><path d="M723.4 600L813.2 537L750.4 521Z" fill="#ededed" stroke="#ededed"></path><path d="M73.8 87L70.8 151L165.6 148Z" fill="#ebebeb" stroke="#ebebeb"></path><path d="M0 284L0 387L86.8 306Z" fill="#ebebeb" stroke="#ebebeb"></path><path d="M73.8 87L165.6 148L168.6 74Z" fill="#f1f1f1" stroke="#f1f1f1"></path><path d="M254.5 0L168.6 0L233.5 87Z" fill="#f9f9f9" stroke="#f9f9f9"></path><path d="M0 284L86.8 306L84.8 209Z" fill="#f9f9f9" stroke="#f9f9f9"></path><path d="M0 211L0 284L84.8 209Z" fill="#efefef" stroke="#efefef"></path><path d="M73.8 0L73.8 87L168.6 74Z" fill="#fbfbfb" stroke="#fbfbfb"></path><path d="M70.8 151L0 211L84.8 209Z" fill="#f9f9f9" stroke="#f9f9f9"></path><path d="M820.2 64L744.4 0L745.4 89Z" fill="#f7f7f7" stroke="#f7f7f7"></path><path d="M828.2 454L900 369L828.2 362Z" fill="#fdfdfd" stroke="#fdfdfd"></path><path d="M832.2 306L900 288L831.2 229Z" fill="#f7f7f7" stroke="#f7f7f7"></path><path d="M831.2 229L900 142L807.2 145Z" fill="#f9f9f9" stroke="#f9f9f9"></path><path d="M900 463L900 369L828.2 454Z" fill="#f3f3f3" stroke="#f3f3f3"></path><path d="M81.8 538L73.8 600L155.6 600Z" fill="#f3f3f3" stroke="#f3f3f3"></path><path d="M0 530L73.8 600L81.8 538Z" fill="#ffffff" stroke="#ffffff"></path><path d="M900 369L900 288L832.2 306Z" fill="#ededed" stroke="#ededed"></path><path d="M807.2 145L820.2 64L745.4 89Z" fill="#ffffff" stroke="#ffffff"></path><path d="M723.4 600L829.2 600L813.2 537Z" fill="#ebebeb" stroke="#ebebeb"></path><path d="M900 509L900 463L828.2 454Z" fill="#f7f7f7" stroke="#f7f7f7"></path><path d="M0 387L0 463L92.8 445Z" fill="#efefef" stroke="#efefef"></path><path d="M900 88L820.2 64L807.2 145Z" fill="#f9f9f9" stroke="#f9f9f9"></path><path d="M0 135L0 211L70.8 151Z" fill="#fdfdfd" stroke="#fdfdfd"></path><path d="M900 288L900 225L831.2 229Z" fill="#f7f7f7" stroke="#f7f7f7"></path><path d="M900 509L828.2 454L813.2 537Z" fill="#ffffff" stroke="#ffffff"></path><path d="M900 600L900 509L813.2 537Z" fill="#ededed" stroke="#ededed"></path><path d="M0 463L0 530L81.8 538Z" fill="#ffffff" stroke="#ffffff"></path><path d="M73.8 87L0 135L70.8 151Z" fill="#ffffff" stroke="#ffffff"></path><path d="M0 79L0 135L73.8 87Z" fill="#fdfdfd" stroke="#fdfdfd"></path><path d="M900 225L900 142L831.2 229Z" fill="#f1f1f1" stroke="#f1f1f1"></path><path d="M900 0L811.2 0L820.2 64Z" fill="#f9f9f9" stroke="#f9f9f9"></path><path d="M820.2 64L811.2 0L744.4 0Z" fill="#f5f5f5" stroke="#f5f5f5"></path><path d="M168.6 0L73.8 0L168.6 74Z" fill="#f3f3f3" stroke="#f3f3f3"></path><path d="M73.8 0L0 79L73.8 87Z" fill="#ededed" stroke="#ededed"></path><path d="M0 530L0 600L73.8 600Z" fill="#f1f1f1" stroke="#f1f1f1"></path><path d="M900 142L900 88L807.2 145Z" fill="#fbfbfb" stroke="#fbfbfb"></path><path d="M829.2 600L900 600L813.2 537Z" fill="#f7f7f7" stroke="#f7f7f7"></path><path d="M73.8 0L0 0L0 79Z" fill="#efefef" stroke="#efefef"></path><path d="M900 88L900 0L820.2 64Z" fill="#f5f5f5" stroke="#f5f5f5"></path></g></svg>