<svg id="visual" viewBox="0 0 900 600" width="900" height="600" xmlns="http://www.w3.org/2000/svg" xmlns:xlink="http://www.w3.org/1999/xlink" version="1.1"><rect x="0" y="0" width="900" height="600" fill="#1d1d1c"></rect><path d="M0 171L18.8 157C37.7 143 75.3 115 112.8 108.8C150.3 102.7 187.7 118.3 225.2 131C262.7 143.7 300.3 153.3 337.8 144.2C375.3 135 412.7 107 450.2 91.3C487.7 75.7 525.3 72.3 562.8 80.8C600.3 89.3 637.7 109.7 675.2 120.5C712.7 131.3 750.3 132.7 787.8 114.2C825.3 95.7 862.7 57.3 881.3 38.2L900 19L900 0L881.3 0C862.7 0 825.3 0 787.8 0C750.3 0 712.7 0 675.2 0C637.7 0 600.3 0 562.8 0C525.3 0 487.7 0 450.2 0C412.7 0 375.3 0 337.8 0C300.3 0 262.7 0 225.2 0C187.7 0 150.3 0 112.8 0C75.3 0 37.7 0 18.8 0L0 0Z" fill="#121212" stroke-linecap="round" stroke-linejoin="miter"></path></svg>